<svg xmlns="http://www.w3.org/2000/svg" xmlns:xlink="http://www.w3.org/1999/xlink" width="1696" zoomAndPan="magnify" viewBox="0 0 1272 238.499993" height="318" preserveAspectRatio="xMidYMid meet" version="1.0"><defs><g/><clipPath id="bea2f0c0aa"><path d="M 34 42.546875 L 185.023438 42.546875 L 185.023438 82 L 34 82 Z M 34 42.546875 " clip-rule="nonzero"/></clipPath><clipPath id="a181003bcf"><path d="M 75 88 L 185.023438 88 L 185.023438 123 L 75 123 Z M 75 88 " clip-rule="nonzero"/></clipPath><clipPath id="09469f0cab"><path d="M 1.332031 114 L 185 114 L 185 154 L 1.332031 154 Z M 1.332031 114 " clip-rule="nonzero"/></clipPath><clipPath id="b36a8de4c1"><path d="M 42 160 L 185.023438 160 L 185.023438 199.867188 L 42 199.867188 Z M 42 160 " clip-rule="nonzero"/></clipPath></defs><g clip-path="url(#bea2f0c0aa)"><path fill="#000000" d="M 51.453125 77.042969 C 60.097656 77.042969 67.203125 70.585938 68.355469 62.207031 L 97.546875 62.207031 L 110.027344 80.316406 C 110.507812 80.992188 111.179688 81.28125 111.949219 81.28125 L 182.71875 81.28125 C 183.96875 81.28125 185.023438 80.21875 185.023438 78.96875 C 185.023438 77.714844 183.96875 76.65625 182.71875 76.65625 L 113.101562 76.65625 L 100.617188 58.546875 C 100.136719 57.871094 99.464844 57.582031 98.699219 57.582031 L 68.257812 57.582031 C 67.105469 49.203125 60 42.746094 51.359375 42.746094 C 41.949219 42.746094 34.265625 50.453125 34.265625 59.894531 C 34.265625 69.335938 42.042969 77.042969 51.453125 77.042969 Z M 51.453125 47.46875 C 58.273438 47.46875 63.839844 53.054688 63.839844 59.894531 C 63.839844 66.734375 58.273438 72.320312 51.453125 72.320312 C 44.636719 72.320312 39.066406 66.734375 39.066406 59.894531 C 39.066406 53.054688 44.542969 47.46875 51.453125 47.46875 Z M 51.453125 47.46875 " fill-opacity="1" fill-rule="nonzero"/></g><g clip-path="url(#a181003bcf)"><path fill="#000000" d="M 182.71875 103.433594 L 109.070312 103.433594 C 107.917969 95.054688 100.8125 88.601562 92.167969 88.601562 C 82.757812 88.601562 75.078125 96.308594 75.078125 105.746094 C 75.078125 115.1875 82.757812 122.894531 92.167969 122.894531 C 100.8125 122.894531 107.917969 116.441406 109.070312 108.058594 L 182.71875 108.058594 C 183.96875 108.058594 185.023438 107 185.023438 105.746094 C 185.023438 104.496094 183.96875 103.433594 182.71875 103.433594 Z M 92.167969 118.269531 C 85.351562 118.269531 79.78125 112.683594 79.78125 105.84375 C 79.78125 99.003906 85.351562 93.320312 92.167969 93.320312 C 98.988281 93.320312 104.554688 98.90625 104.554688 105.746094 C 104.554688 112.683594 98.988281 118.269531 92.167969 118.269531 Z M 92.167969 118.269531 " fill-opacity="1" fill-rule="nonzero"/></g><g clip-path="url(#09469f0cab)"><path fill="#000000" d="M 182.71875 133.105469 L 118.480469 133.105469 C 117.710938 133.105469 116.941406 133.492188 116.460938 134.164062 L 107.4375 148.613281 L 67.875 148.613281 L 58.082031 130.3125 C 57.695312 129.539062 56.929688 129.058594 56.0625 129.058594 L 35.324219 129.058594 C 34.171875 120.679688 27.066406 114.222656 18.421875 114.222656 C 9.011719 114.222656 1.332031 121.929688 1.332031 131.371094 C 1.332031 140.8125 9.011719 148.519531 18.421875 148.519531 C 27.066406 148.519531 34.171875 142.0625 35.324219 133.683594 L 54.625 133.683594 L 64.417969 151.984375 C 64.800781 152.757812 65.570312 153.238281 66.433594 153.238281 L 108.683594 153.238281 C 109.453125 153.238281 110.222656 152.851562 110.703125 152.179688 L 119.726562 137.730469 L 182.621094 137.730469 C 183.871094 137.730469 184.925781 136.667969 184.925781 135.417969 C 185.023438 134.164062 183.96875 133.105469 182.71875 133.105469 Z M 18.421875 143.988281 C 11.605469 143.988281 6.035156 138.402344 6.035156 131.5625 C 6.035156 124.722656 11.605469 119.136719 18.421875 119.136719 C 25.242188 119.136719 30.808594 124.722656 30.808594 131.5625 C 30.90625 138.402344 25.335938 143.988281 18.421875 143.988281 Z M 18.421875 143.988281 " fill-opacity="1" fill-rule="nonzero"/></g><g clip-path="url(#b36a8de4c1)"><path fill="#000000" d="M 182.71875 160.367188 L 145.652344 160.367188 C 144.789062 160.367188 144.019531 160.847656 143.636719 161.523438 L 132.691406 180.210938 L 76.804688 180.210938 C 75.652344 171.828125 68.546875 165.375 59.90625 165.375 C 50.496094 165.375 42.8125 173.082031 42.8125 182.523438 C 42.8125 191.960938 50.496094 199.667969 59.90625 199.667969 C 68.546875 199.667969 75.652344 193.214844 76.804688 184.832031 L 134.035156 184.832031 C 134.898438 184.832031 135.667969 184.351562 136.050781 183.679688 L 147 164.988281 L 182.71875 164.988281 C 183.96875 164.988281 185.023438 163.929688 185.023438 162.679688 C 185.023438 161.425781 183.96875 160.367188 182.71875 160.367188 Z M 59.90625 195.042969 C 53.085938 195.042969 47.519531 189.457031 47.519531 182.617188 C 47.519531 175.777344 53.085938 170.191406 59.90625 170.191406 C 66.722656 170.191406 72.292969 175.777344 72.292969 182.617188 C 72.386719 189.457031 66.820312 195.042969 59.90625 195.042969 Z M 59.90625 195.042969 " fill-opacity="1" fill-rule="nonzero"/></g><g fill="#ff00ff" fill-opacity="1"><g transform="translate(167.200613, 167.525826)"><g><path d="M 106.929688 0 L 106.929688 -20.367188 L 25.460938 -20.367188 L 25.460938 -81.472656 L 106.929688 -81.472656 L 106.929688 -101.839844 L 25.460938 -101.839844 C 14.257812 -101.839844 5.09375 -92.671875 5.09375 -81.472656 L 5.09375 -20.367188 C 5.09375 -9.164062 14.257812 0 25.460938 0 Z M 106.929688 0 "/></g></g></g><g fill="#ff00ff" fill-opacity="1"><g transform="translate(299.336177, 167.525826)"><g><path d="M 25.460938 -101.839844 C 14.257812 -101.839844 5.09375 -92.671875 5.09375 -81.472656 L 5.09375 0 L 25.460938 0 L 25.460938 -40.734375 L 86.5625 -40.734375 L 86.5625 0 L 106.929688 0 L 106.929688 -81.472656 C 106.929688 -92.671875 97.765625 -101.839844 86.5625 -101.839844 Z M 25.460938 -81.472656 L 86.5625 -81.472656 L 86.5625 -61.101562 L 25.460938 -61.101562 Z M 25.460938 -81.472656 "/></g></g></g><g fill="#ff00ff" fill-opacity="1"><g transform="translate(431.471742, 167.525826)"><g><path d="M 106.929688 -101.839844 L 5.09375 -101.839844 L 5.09375 -81.472656 L 45.828125 -81.472656 L 45.828125 0 L 66.195312 0 L 66.195312 -81.472656 L 106.929688 -81.472656 Z M 106.929688 -101.839844 "/></g></g></g><g fill="#ff00ff" fill-opacity="1"><g transform="translate(563.607326, 167.525826)"><g><path d="M 25.460938 -101.839844 C 14.257812 -101.839844 5.09375 -92.671875 5.09375 -81.472656 L 5.09375 0 L 25.460938 0 L 25.460938 -40.734375 L 86.5625 -40.734375 L 86.5625 0 L 106.929688 0 L 106.929688 -81.472656 C 106.929688 -92.671875 97.765625 -101.839844 86.5625 -101.839844 Z M 25.460938 -81.472656 L 86.5625 -81.472656 L 86.5625 -61.101562 L 25.460938 -61.101562 Z M 25.460938 -81.472656 "/></g></g></g><g fill="#ff00ff" fill-opacity="1"><g transform="translate(695.74287, 167.525826)"><g><path d="M 106.929688 0 L 106.929688 -20.367188 L 25.460938 -20.367188 L 25.460938 -101.839844 L 5.09375 -101.839844 L 5.09375 -20.367188 C 5.09375 -9.164062 14.257812 0 25.460938 0 Z M 106.929688 0 "/></g></g></g><g fill="#ff00ff" fill-opacity="1"><g transform="translate(827.878414, 167.525826)"><g><path d="M 86.5625 -61.101562 L 25.460938 -61.101562 L 25.460938 -101.839844 L 5.09375 -101.839844 L 5.09375 -61.101562 C 5.09375 -49.902344 14.257812 -40.734375 25.460938 -40.734375 L 86.5625 -40.734375 L 86.5625 -20.367188 L 5.09375 -20.367188 L 5.09375 0 L 86.5625 0 C 97.765625 0 106.929688 -9.164062 106.929688 -20.367188 L 106.929688 -101.839844 L 86.5625 -101.839844 Z M 86.5625 -61.101562 "/></g></g></g><g fill="#ff00ff" fill-opacity="1"><g transform="translate(960.013959, 167.525826)"><g><path d="M 106.929688 -101.839844 L 25.460938 -101.839844 C 14.257812 -101.839844 5.09375 -92.671875 5.09375 -81.472656 L 5.09375 -61.101562 C 5.09375 -49.902344 14.257812 -40.734375 25.460938 -40.734375 L 86.5625 -40.734375 L 86.5625 -20.367188 L 5.09375 -20.367188 L 5.09375 0 L 86.5625 0 C 97.765625 0 106.929688 -9.164062 106.929688 -20.367188 L 106.929688 -40.734375 C 106.929688 -51.9375 97.765625 -61.101562 86.5625 -61.101562 L 25.460938 -61.101562 L 25.460938 -81.472656 L 106.929688 -81.472656 Z M 106.929688 -101.839844 "/></g></g></g><g fill="#ff00ff" fill-opacity="1"><g transform="translate(1092.149503, 167.525826)"><g><path d="M 106.929688 -101.839844 L 5.09375 -101.839844 L 5.09375 -81.472656 L 45.828125 -81.472656 L 45.828125 0 L 66.195312 0 L 66.195312 -81.472656 L 106.929688 -81.472656 Z M 106.929688 -101.839844 "/></g></g></g><g fill="#00ffff" fill-opacity="1"><g transform="translate(182.70506, 171.105314)"><g><path d="M 106.929688 0 L 106.929688 -20.367188 L 25.460938 -20.367188 L 25.460938 -81.472656 L 106.929688 -81.472656 L 106.929688 -101.839844 L 25.460938 -101.839844 C 14.257812 -101.839844 5.09375 -92.671875 5.09375 -81.472656 L 5.09375 -20.367188 C 5.09375 -9.164062 14.257812 0 25.460938 0 Z M 106.929688 0 "/></g></g></g><g fill="#00ffff" fill-opacity="1"><g transform="translate(314.840624, 171.105314)"><g><path d="M 25.460938 -101.839844 C 14.257812 -101.839844 5.09375 -92.671875 5.09375 -81.472656 L 5.09375 0 L 25.460938 0 L 25.460938 -40.734375 L 86.5625 -40.734375 L 86.5625 0 L 106.929688 0 L 106.929688 -81.472656 C 106.929688 -92.671875 97.765625 -101.839844 86.5625 -101.839844 Z M 25.460938 -81.472656 L 86.5625 -81.472656 L 86.5625 -61.101562 L 25.460938 -61.101562 Z M 25.460938 -81.472656 "/></g></g></g><g fill="#00ffff" fill-opacity="1"><g transform="translate(446.976188, 171.105314)"><g><path d="M 106.929688 -101.839844 L 5.09375 -101.839844 L 5.09375 -81.472656 L 45.828125 -81.472656 L 45.828125 0 L 66.195312 0 L 66.195312 -81.472656 L 106.929688 -81.472656 Z M 106.929688 -101.839844 "/></g></g></g><g fill="#00ffff" fill-opacity="1"><g transform="translate(579.111773, 171.105314)"><g><path d="M 25.460938 -101.839844 C 14.257812 -101.839844 5.09375 -92.671875 5.09375 -81.472656 L 5.09375 0 L 25.460938 0 L 25.460938 -40.734375 L 86.5625 -40.734375 L 86.5625 0 L 106.929688 0 L 106.929688 -81.472656 C 106.929688 -92.671875 97.765625 -101.839844 86.5625 -101.839844 Z M 25.460938 -81.472656 L 86.5625 -81.472656 L 86.5625 -61.101562 L 25.460938 -61.101562 Z M 25.460938 -81.472656 "/></g></g></g><g fill="#00ffff" fill-opacity="1"><g transform="translate(711.247317, 171.105314)"><g><path d="M 106.929688 0 L 106.929688 -20.367188 L 25.460938 -20.367188 L 25.460938 -101.839844 L 5.09375 -101.839844 L 5.09375 -20.367188 C 5.09375 -9.164062 14.257812 0 25.460938 0 Z M 106.929688 0 "/></g></g></g><g fill="#00ffff" fill-opacity="1"><g transform="translate(843.382861, 171.105314)"><g><path d="M 86.5625 -61.101562 L 25.460938 -61.101562 L 25.460938 -101.839844 L 5.09375 -101.839844 L 5.09375 -61.101562 C 5.09375 -49.902344 14.257812 -40.734375 25.460938 -40.734375 L 86.5625 -40.734375 L 86.5625 -20.367188 L 5.09375 -20.367188 L 5.09375 0 L 86.5625 0 C 97.765625 0 106.929688 -9.164062 106.929688 -20.367188 L 106.929688 -101.839844 L 86.5625 -101.839844 Z M 86.5625 -61.101562 "/></g></g></g><g fill="#00ffff" fill-opacity="1"><g transform="translate(975.518406, 171.105314)"><g><path d="M 106.929688 -101.839844 L 25.460938 -101.839844 C 14.257812 -101.839844 5.09375 -92.671875 5.09375 -81.472656 L 5.09375 -61.101562 C 5.09375 -49.902344 14.257812 -40.734375 25.460938 -40.734375 L 86.5625 -40.734375 L 86.5625 -20.367188 L 5.09375 -20.367188 L 5.09375 0 L 86.5625 0 C 97.765625 0 106.929688 -9.164062 106.929688 -20.367188 L 106.929688 -40.734375 C 106.929688 -51.9375 97.765625 -61.101562 86.5625 -61.101562 L 25.460938 -61.101562 L 25.460938 -81.472656 L 106.929688 -81.472656 Z M 106.929688 -101.839844 "/></g></g></g><g fill="#00ffff" fill-opacity="1"><g transform="translate(1107.65395, 171.105314)"><g><path d="M 106.929688 -101.839844 L 5.09375 -101.839844 L 5.09375 -81.472656 L 45.828125 -81.472656 L 45.828125 0 L 66.195312 0 L 66.195312 -81.472656 L 106.929688 -81.472656 Z M 106.929688 -101.839844 "/></g></g></g><g fill="#000000" fill-opacity="1"><g transform="translate(174.952837, 169.31557)"><g><path d="M 106.929688 0 L 106.929688 -20.367188 L 25.460938 -20.367188 L 25.460938 -81.472656 L 106.929688 -81.472656 L 106.929688 -101.839844 L 25.460938 -101.839844 C 14.257812 -101.839844 5.09375 -92.671875 5.09375 -81.472656 L 5.09375 -20.367188 C 5.09375 -9.164062 14.257812 0 25.460938 0 Z M 106.929688 0 "/></g></g></g><g fill="#000000" fill-opacity="1"><g transform="translate(307.088401, 169.31557)"><g><path d="M 25.460938 -101.839844 C 14.257812 -101.839844 5.09375 -92.671875 5.09375 -81.472656 L 5.09375 0 L 25.460938 0 L 25.460938 -40.734375 L 86.5625 -40.734375 L 86.5625 0 L 106.929688 0 L 106.929688 -81.472656 C 106.929688 -92.671875 97.765625 -101.839844 86.5625 -101.839844 Z M 25.460938 -81.472656 L 86.5625 -81.472656 L 86.5625 -61.101562 L 25.460938 -61.101562 Z M 25.460938 -81.472656 "/></g></g></g><g fill="#000000" fill-opacity="1"><g transform="translate(439.223965, 169.31557)"><g><path d="M 106.929688 -101.839844 L 5.09375 -101.839844 L 5.09375 -81.472656 L 45.828125 -81.472656 L 45.828125 0 L 66.195312 0 L 66.195312 -81.472656 L 106.929688 -81.472656 Z M 106.929688 -101.839844 "/></g></g></g><g fill="#000000" fill-opacity="1"><g transform="translate(571.359549, 169.31557)"><g><path d="M 25.460938 -101.839844 C 14.257812 -101.839844 5.09375 -92.671875 5.09375 -81.472656 L 5.09375 0 L 25.460938 0 L 25.460938 -40.734375 L 86.5625 -40.734375 L 86.5625 0 L 106.929688 0 L 106.929688 -81.472656 C 106.929688 -92.671875 97.765625 -101.839844 86.5625 -101.839844 Z M 25.460938 -81.472656 L 86.5625 -81.472656 L 86.5625 -61.101562 L 25.460938 -61.101562 Z M 25.460938 -81.472656 "/></g></g></g><g fill="#000000" fill-opacity="1"><g transform="translate(703.495093, 169.31557)"><g><path d="M 106.929688 0 L 106.929688 -20.367188 L 25.460938 -20.367188 L 25.460938 -101.839844 L 5.09375 -101.839844 L 5.09375 -20.367188 C 5.09375 -9.164062 14.257812 0 25.460938 0 Z M 106.929688 0 "/></g></g></g><g fill="#000000" fill-opacity="1"><g transform="translate(835.630638, 169.31557)"><g><path d="M 86.5625 -61.101562 L 25.460938 -61.101562 L 25.460938 -101.839844 L 5.09375 -101.839844 L 5.09375 -61.101562 C 5.09375 -49.902344 14.257812 -40.734375 25.460938 -40.734375 L 86.5625 -40.734375 L 86.5625 -20.367188 L 5.09375 -20.367188 L 5.09375 0 L 86.5625 0 C 97.765625 0 106.929688 -9.164062 106.929688 -20.367188 L 106.929688 -101.839844 L 86.5625 -101.839844 Z M 86.5625 -61.101562 "/></g></g></g><g fill="#000000" fill-opacity="1"><g transform="translate(967.766182, 169.31557)"><g><path d="M 106.929688 -101.839844 L 25.460938 -101.839844 C 14.257812 -101.839844 5.09375 -92.671875 5.09375 -81.472656 L 5.09375 -61.101562 C 5.09375 -49.902344 14.257812 -40.734375 25.460938 -40.734375 L 86.5625 -40.734375 L 86.5625 -20.367188 L 5.09375 -20.367188 L 5.09375 0 L 86.5625 0 C 97.765625 0 106.929688 -9.164062 106.929688 -20.367188 L 106.929688 -40.734375 C 106.929688 -51.9375 97.765625 -61.101562 86.5625 -61.101562 L 25.460938 -61.101562 L 25.460938 -81.472656 L 106.929688 -81.472656 Z M 106.929688 -101.839844 "/></g></g></g><g fill="#000000" fill-opacity="1"><g transform="translate(1099.901726, 169.31557)"><g><path d="M 106.929688 -101.839844 L 5.09375 -101.839844 L 5.09375 -81.472656 L 45.828125 -81.472656 L 45.828125 0 L 66.195312 0 L 66.195312 -81.472656 L 106.929688 -81.472656 Z M 106.929688 -101.839844 "/></g></g></g></svg>